<svg width="24" height="26" viewBox="0 0 24 26" fill="none" xmlns="http://www.w3.org/2000/svg">
<path d="M6.99805 1C3.13905 1 0 4.14195 0 8.00195V18.002C0 21.861 3.14195 25 7.00195 25H17.002C20.861 25 24 21.858 24 17.998V7.99805C24 4.13905 20.858 1 16.998 1H6.99805ZM19 5C19.552 5 20 5.448 20 6C20 6.552 19.552 7 19 7C18.448 7 18 6.552 18 6C18 5.448 18.448 5 19 5ZM12 7C15.309 7 18 9.691 18 13C18 16.309 15.309 19 12 19C8.691 19 6 16.309 6 13C6 9.691 8.691 7 12 7ZM12 9C10.9391 9 9.92172 9.42143 9.17157 10.1716C8.42143 10.9217 8 11.9391 8 13C8 14.0609 8.42143 15.0783 9.17157 15.8284C9.92172 16.5786 10.9391 17 12 17C13.0609 17 14.0783 16.5786 14.8284 15.8284C15.5786 15.0783 16 14.0609 16 13C16 11.9391 15.5786 10.9217 14.8284 10.1716C14.0783 9.42143 13.0609 9 12 9Z" fill="#CACACA"/>
</svg>
