<svg width="26" height="26" viewBox="0 0 26 26" fill="none" xmlns="http://www.w3.org/2000/svg">
<path d="M13 0C20.18 0 26 5.82004 26 13C26 20.18 20.18 26 13 26C5.82004 26 0 20.18 0 13C0 5.82004 5.82004 0 13 0ZM17.4844 18.2989C17.7235 17.5653 18.8438 10.2536 18.9823 8.81287C19.0241 8.37652 18.8862 8.08656 18.616 7.95713C18.2893 7.8 17.8055 7.87857 17.2442 8.08091C16.4744 8.35843 6.63283 12.5371 6.06422 12.779C5.525 13.0079 5.01517 13.2577 5.01517 13.6195C5.01517 13.8738 5.16609 14.0168 5.58209 14.1655C6.01504 14.3198 7.10535 14.6504 7.74913 14.8279C8.36917 14.9992 9.07513 14.8505 9.47078 14.6047C9.89017 14.3441 14.7301 11.1054 15.0777 10.8217C15.4248 10.5379 15.7017 10.9013 15.418 11.1857C15.1343 11.4694 11.8119 14.694 11.3739 15.1405C10.842 15.6825 11.2196 16.2443 11.5762 16.4693C11.9837 16.7259 14.9144 18.6917 15.3558 19.0071C15.7973 19.3225 16.2449 19.4655 16.6547 19.4655C17.0645 19.4655 17.2804 18.9257 17.4844 18.2989Z" fill="#CACACA"/>
</svg>
