<svg width="33" height="26" viewBox="0 0 33 26" fill="none" xmlns="http://www.w3.org/2000/svg">
<path d="M31.4238 5.125C31.125 3.47559 29.7012 2.27441 28.0488 1.89941C25.5762 1.375 21 1 16.0488 1C11.1006 1 6.45117 1.375 3.97559 1.89941C2.32617 2.27441 0.899414 3.39941 0.600586 5.125C0.298828 7 0 9.625 0 13C0 16.375 0.298829 19 0.673829 20.875C0.975586 22.5244 2.39941 23.7256 4.04883 24.1006C6.67383 24.625 11.1738 25 16.125 25C21.0762 25 25.5762 24.625 28.2012 24.1006C29.8506 23.7256 31.2744 22.6006 31.5762 20.875C31.875 19 32.25 16.2988 32.3262 13C32.1738 9.625 31.7988 7 31.4238 5.125ZM12 18.25V7.75L21.1494 13L12 18.25Z" fill="#CACACA"/>
</svg>
